<svg xmlns="http://www.w3.org/2000/svg" width="73" height="73" viewBox="0 0 73 73"><defs><style>.a{fill:#fff;}</style></defs><g transform="translate(-1 -1)"><path class="a" d="M35.242,23a3.527,3.527,0,0,0-3.316,2.355H27V27.71h4.926a3.512,3.512,0,0,0,6.631,0h26.12V25.355H38.558A3.527,3.527,0,0,0,35.242,23Zm0,4.71a1.177,1.177,0,1,1,1.177-1.177A1.179,1.179,0,0,1,35.242,27.71Z" transform="translate(4.613 3.903)"/><path class="a" d="M37,4.382V19.966l15.584-7.792Zm2.355,3.81,7.964,3.982-7.964,3.982Z" transform="translate(6.387 0.6)"/><path class="a" d="M4.532,64.581H21.016a3.537,3.537,0,0,0,3.532-3.532V59.811A22.363,22.363,0,0,0,45.682,38.677H68.113A5.894,5.894,0,0,0,74,32.79V6.887A5.894,5.894,0,0,0,68.113,1H32.79A5.894,5.894,0,0,0,26.9,6.887v8.525a22.356,22.356,0,1,0-4.71,44.4v1.237a1.178,1.178,0,0,1-1.177,1.177H4.532a3.532,3.532,0,0,0,0,7.065H35.145a3.537,3.537,0,0,0,3.532-3.532,1.178,1.178,0,0,1,1.177-1.177h5.887v1.177A8.253,8.253,0,0,0,53.984,74H63.4a10.6,10.6,0,0,0,0-21.194H53.984a8.253,8.253,0,0,0-8.242,8.242v1.177H39.855a3.537,3.537,0,0,0-3.532,3.532,1.178,1.178,0,0,1-1.177,1.177H4.532a1.177,1.177,0,1,1,0-2.355ZM16.747,49.274H29.994c-1.6,5.167-4.166,8.242-6.624,8.242s-5.021-3.075-6.623-8.242ZM3.415,38.677H12.8a44.447,44.447,0,0,0,.935,8.242H5.719A19.867,19.867,0,0,1,3.415,38.677Zm24.7-2.355H15.155a42,42,0,0,1,.969-8.242H26.9v4.71A5.826,5.826,0,0,0,28.111,36.323Zm-15.31,0H3.415A19.868,19.868,0,0,1,5.72,28.081h8.017A44.343,44.343,0,0,0,12.8,36.323Zm2.354,2.355H31.587a42,42,0,0,1-.969,8.242H16.125A42,42,0,0,1,15.155,38.677ZM28.832,56.74a21.586,21.586,0,0,0,3.583-7.466h7.108A20.062,20.062,0,0,1,28.832,56.74Zm12.191-9.821H33.006a44.447,44.447,0,0,0,.935-8.242h9.388A19.886,19.886,0,0,1,41.023,46.919Zm27.09-10.6H32.79a3.537,3.537,0,0,1-3.532-3.532V24.548H71.645V32.79A3.537,3.537,0,0,1,68.113,36.323ZM32.79,3.355H68.113a3.537,3.537,0,0,1,3.532,3.532V22.194H29.258V6.887A3.537,3.537,0,0,1,32.79,3.355ZM26.9,17.825v7.9H16.747c1.6-5.167,4.166-8.242,6.624-8.242A20.148,20.148,0,0,1,26.9,17.825Zm-8.993.434a21.586,21.586,0,0,0-3.583,7.466H7.22A20.055,20.055,0,0,1,17.91,18.26ZM7.22,49.274h7.108a21.6,21.6,0,0,0,3.583,7.466A20.053,20.053,0,0,1,7.22,49.274ZM51.629,62.226a1.177,1.177,0,0,1,0,2.355H48.1V62.226Zm8.242,9.419v-.06c0-.83,2.682-2.355,7.065-2.355a17.257,17.257,0,0,1,2.144.133A8.2,8.2,0,0,1,63.4,71.645Zm10.817-4.4c-3.57-.714-8.105-.323-10.817,1.142V58.378a15.522,15.522,0,0,0,7.065,1.493,18.887,18.887,0,0,0,3.727-.366,8.209,8.209,0,0,1,.026,7.743Zm-1.665-9.856a17.305,17.305,0,0,1-2.088.125c-4.382,0-7.065-1.525-7.065-2.355H63.4A8.2,8.2,0,0,1,69.023,57.391Zm-15.039-2.23h3.532V71.645H53.984a5.9,5.9,0,0,1-5.768-4.71h3.413a3.532,3.532,0,0,0,0-7.065H48.216A5.9,5.9,0,0,1,53.984,55.161Z"/><path class="a" d="M27,15h2.355v2.355H27Z" transform="translate(4.613 2.484)"/><path class="a" d="M29.355,7.355H31.71V5H29.355A2.357,2.357,0,0,0,27,7.355v7.065h2.355Z" transform="translate(4.613 0.71)"/><path class="a" d="M57,11h2.355v2.355H57Z" transform="translate(9.935 1.774)"/><path class="a" d="M57,15h2.355v2.355H57Z" transform="translate(9.935 2.484)"/><path class="a" d="M57,7h2.355V9.355H57Z" transform="translate(9.935 1.065)"/></g></svg>