<svg xmlns="http://www.w3.org/2000/svg" width="67.537" height="67.537" viewBox="0 0 67.537 67.537"><defs><style>.a{fill:#fff;}</style></defs><path class="a" d="M83.857,139.787l.633-1.034-.633-1.034a38.055,38.055,0,0,0-7.6-8.405,34.289,34.289,0,0,0-44.908,0,38.423,38.423,0,0,0-7.661,8.4l-.647,1.043.647,1.043a38.422,38.422,0,0,0,7.661,8.4,34.289,34.289,0,0,0,44.908,0A38.037,38.037,0,0,0,83.857,139.787Zm-10.24,5.451a30.322,30.322,0,0,1-39.643,0,37.339,37.339,0,0,1-6.2-6.48,37.34,37.34,0,0,1,6.2-6.481,30.322,30.322,0,0,1,39.643,0,36.85,36.85,0,0,1,6.152,6.485A36.861,36.861,0,0,1,73.617,145.238Zm0,0" transform="translate(-20 -104.985)"/><path class="a" d="M177.757,165.867a11.889,11.889,0,1,0,11.889,11.889A11.9,11.9,0,0,0,177.757,165.867Zm0,19.821a7.932,7.932,0,1,1,7.932-7.932A7.941,7.941,0,0,1,177.757,185.688Zm0,0" transform="translate(-143.988 -143.988)"/><path class="a" d="M3.957,3.957h8.261V0H0V12.07H3.957Zm0,0"/><path class="a" d="M419.375,0V3.957h8.261V12.07h3.957V0Zm0,0" transform="translate(-364.056)"/><path class="a" d="M3.957,420.5H0v12.07H12.218v-3.957H3.957Zm0,0" transform="translate(0 -365.032)"/><path class="a" d="M427.636,428.612h-8.261v3.957h12.218V420.5h-3.957Zm0,0" transform="translate(-364.056 -365.032)"/></svg>