<svg xmlns="http://www.w3.org/2000/svg" width="32" height="32" viewBox="0 0 32 32"><defs><style>.a{fill:#6368d9;}</style></defs><g transform="translate(0)"><path class="a" d="M172.249,162.991a13.161,13.161,0,0,0-1.184-18.411,15.049,15.049,0,0,1-14.456,19.151c-.192,0,.965.007-3.593-.021a13.109,13.109,0,0,0,9.28,3.834l12.223-.062a.938.938,0,0,0,.654-1.6Z" transform="translate(-143.453 -135.544)"/><path class="a" d="M13.156,26.313A13.154,13.154,0,1,0,3.2,21.76L.28,24.645a.938.938,0,0,0,.654,1.6ZM7.563,8.5H18.812a.938.938,0,0,1,0,1.875H7.563a.938.938,0,0,1,0-1.875Zm0,3.75H18.812a.938.938,0,0,1,0,1.875H7.563a.938.938,0,0,1,0-1.875Zm-.937,4.687A.937.937,0,0,1,7.563,16H18.812a.937.937,0,0,1,0,1.875H7.563a.938.938,0,0,1-.937-.937Z" transform="translate(0)"/></g></svg>