<svg xmlns="http://www.w3.org/2000/svg" width="33.159" height="33.159" viewBox="0 0 33.159 33.159"><defs><style>.a{fill:#6368d9;}</style></defs><g transform="translate(-1 -1)"><path class="a" d="M30.744,23a1.6,1.6,0,0,0-1.506,1.07H27v1.07h2.238a1.6,1.6,0,0,0,3.012,0H44.114V24.07H32.25A1.6,1.6,0,0,0,30.744,23Zm0,2.139a.535.535,0,1,1,.535-.535A.535.535,0,0,1,30.744,25.139Z" transform="translate(-12.095 -10.234)"/><path class="a" d="M37,4.382v7.079l7.079-3.539Zm1.07,1.731,3.618,1.809L38.07,9.73Z" transform="translate(-16.746 -1.573)"/><path class="a" d="M2.6,29.88h7.488a1.606,1.606,0,0,0,1.6-1.6v-.562a10.158,10.158,0,0,0,9.6-9.6H31.485a2.677,2.677,0,0,0,2.674-2.674V3.674A2.677,2.677,0,0,0,31.485,1H15.44a2.677,2.677,0,0,0-2.674,2.674V7.546a10.155,10.155,0,1,0-2.139,20.168v.562a.535.535,0,0,1-.535.535H2.6a1.6,1.6,0,0,0,0,3.209H16.51a1.606,1.606,0,0,0,1.6-1.6.535.535,0,0,1,.535-.535h2.674v.535a3.749,3.749,0,0,0,3.744,3.744h4.279a4.813,4.813,0,0,0,0-9.627H25.067a3.749,3.749,0,0,0-3.744,3.744v.535H18.649a1.606,1.606,0,0,0-1.6,1.6.535.535,0,0,1-.535.535H2.6a.535.535,0,0,1,0-1.07Zm5.548-6.953H14.17c-.728,2.347-1.892,3.744-3.009,3.744s-2.28-1.4-3.008-3.744ZM2.1,18.114H6.361a20.189,20.189,0,0,0,.425,3.744H3.144A9.024,9.024,0,0,1,2.1,18.114Zm11.218-1.07H7.43A19.079,19.079,0,0,1,7.87,13.3h4.9V15.44A2.646,2.646,0,0,0,13.315,17.045Zm-6.954,0H2.1A9.025,9.025,0,0,1,3.144,13.3H6.786A20.142,20.142,0,0,0,6.361,17.045Zm1.069,1.07h7.464a19.079,19.079,0,0,1-.44,3.744H7.87A19.077,19.077,0,0,1,7.43,18.114Zm6.212,8.2a9.805,9.805,0,0,0,1.627-3.391H18.5a9.113,9.113,0,0,1-4.856,3.391Zm5.538-4.461H15.538a20.189,20.189,0,0,0,.425-3.744h4.264A9.033,9.033,0,0,1,19.18,21.858Zm12.305-4.813H15.44a1.606,1.606,0,0,1-1.6-1.6V11.7H33.089V15.44A1.606,1.606,0,0,1,31.485,17.045ZM15.44,2.07H31.485a1.606,1.606,0,0,1,1.6,1.6v6.953H13.836V3.674A1.606,1.606,0,0,1,15.44,2.07ZM12.766,8.643v3.589H8.153c.728-2.347,1.892-3.744,3.009-3.744A9.152,9.152,0,0,1,12.766,8.643Zm-4.085.2a9.805,9.805,0,0,0-1.627,3.391H3.825A9.109,9.109,0,0,1,8.681,8.84ZM3.825,22.928H7.054a9.81,9.81,0,0,0,1.627,3.391,9.109,9.109,0,0,1-4.856-3.391ZM24,28.811a.535.535,0,0,1,0,1.07h-1.6v-1.07Zm3.744,4.279v-.027c0-.377,1.218-1.07,3.209-1.07a7.839,7.839,0,0,1,.974.06,3.727,3.727,0,0,1-2.578,1.036Zm4.913-2a8.117,8.117,0,0,0-4.913.519V27.063a7.05,7.05,0,0,0,3.209.678,8.579,8.579,0,0,0,1.693-.166,3.729,3.729,0,0,1,.012,3.517ZM31.9,26.615a7.861,7.861,0,0,1-.948.057c-1.991,0-3.209-.693-3.209-1.07h1.6A3.726,3.726,0,0,1,31.9,26.615ZM25.067,25.6h1.6v7.488h-1.6a2.679,2.679,0,0,1-2.62-2.139H24a1.6,1.6,0,0,0,0-3.209h-1.55A2.679,2.679,0,0,1,25.067,25.6Z" transform="translate(0 0)"/><path class="a" d="M27,15h1.07v1.07H27Z" transform="translate(-12.095 -6.512)"/><path class="a" d="M28.07,6.07h1.07V5H28.07A1.071,1.071,0,0,0,27,6.07V9.279h1.07Z" transform="translate(-12.095 -1.861)"/><path class="a" d="M57,11h1.07v1.07H57Z" transform="translate(-26.05 -4.652)"/><path class="a" d="M57,15h1.07v1.07H57Z" transform="translate(-26.05 -6.512)"/><path class="a" d="M57,7h1.07V8.07H57Z" transform="translate(-26.05 -2.791)"/></g></svg>