<svg xmlns="http://www.w3.org/2000/svg" width="23.3" height="23.3" viewBox="0 0 23.3 23.3"><defs><style>.a{fill:#6368d9;}</style></defs><path class="a" d="M8.98,7.767H1.7A1.7,1.7,0,0,1,0,6.068V1.7A1.7,1.7,0,0,1,1.7,0H8.98a1.7,1.7,0,0,1,1.7,1.7V6.068A1.7,1.7,0,0,1,8.98,7.767ZM1.7,1.456a.243.243,0,0,0-.243.243V6.068a.243.243,0,0,0,.243.243H8.98a.243.243,0,0,0,.243-.243V1.7a.243.243,0,0,0-.243-.243Zm0,0" transform="translate(0 0)"/><path class="a" d="M8.98,226.924H1.7a1.7,1.7,0,0,1-1.7-1.7V215.031a1.7,1.7,0,0,1,1.7-1.7H8.98a1.7,1.7,0,0,1,1.7,1.7v10.194A1.7,1.7,0,0,1,8.98,226.924ZM1.7,214.788a.243.243,0,0,0-.243.243v10.194a.243.243,0,0,0,.243.243H8.98a.243.243,0,0,0,.243-.243V215.031a.243.243,0,0,0-.243-.243Zm0,0" transform="translate(0 -203.624)"/><path class="a" d="M286.313,349.1h-7.281a1.7,1.7,0,0,1-1.7-1.7v-4.369a1.7,1.7,0,0,1,1.7-1.7h7.281a1.7,1.7,0,0,1,1.7,1.7V347.4A1.7,1.7,0,0,1,286.313,349.1Zm-7.281-6.311a.243.243,0,0,0-.243.243V347.4a.243.243,0,0,0,.243.243h7.281a.243.243,0,0,0,.243-.243v-4.369a.243.243,0,0,0-.243-.243Zm0,0" transform="translate(-264.711 -325.799)"/><path class="a" d="M286.313,13.592h-7.281a1.7,1.7,0,0,1-1.7-1.7V1.7a1.7,1.7,0,0,1,1.7-1.7h7.281a1.7,1.7,0,0,1,1.7,1.7V11.893A1.7,1.7,0,0,1,286.313,13.592ZM279.031,1.456a.243.243,0,0,0-.243.243V11.893a.243.243,0,0,0,.243.243h7.281a.243.243,0,0,0,.243-.243V1.7a.243.243,0,0,0-.243-.243Zm0,0" transform="translate(-264.711 0)"/></svg>