<svg xmlns="http://www.w3.org/2000/svg" width="32.376" height="32.376" viewBox="0 0 32.376 32.376"><defs><style>.a{fill:#6368d9;}</style></defs><path class="a" d="M5.694,25.037a2.64,2.64,0,0,0-1.276.326A14.93,14.93,0,0,1,19.16,1.56.632.632,0,0,0,19.41.32,16.308,16.308,0,0,0,16.188,0a16.188,16.188,0,0,0-12.7,26.22,2.657,2.657,0,1,0,2.211-1.183Zm.984,3.639a1.391,1.391,0,1,1,.408-.984A1.381,1.381,0,0,1,6.678,28.677Zm0,0" transform="translate(0 0.001)"/><path class="a" d="M213.888,36.179a2.65,2.65,0,1,0-.935.858A14.93,14.93,0,0,1,198.24,60.845a.632.632,0,1,0-.248,1.24,16.32,16.32,0,0,0,3.192.315,16.188,16.188,0,0,0,12.7-26.221Zm-3.194-.489a1.392,1.392,0,1,1,.984.407,1.382,1.382,0,0,1-.984-.407Zm0,0" transform="translate(-184.996 -30.024)"/><path class="a" d="M82.884,96.385a.632.632,0,0,0,.632.632h3.954a.632.632,0,0,0,.632-.632V95.159a9.9,9.9,0,0,0,2.373-.984l.866.866a.632.632,0,0,0,.894,0l2.795-2.8a.633.633,0,0,0,0-.894l-.865-.865a9.9,9.9,0,0,0,.984-2.373h1.221A.632.632,0,0,0,97,87.48V83.526a.632.632,0,0,0-.632-.632H95.15a9.9,9.9,0,0,0-.983-2.373l.86-.86a.632.632,0,0,0,0-.895l-2.8-2.795a.632.632,0,0,0-.894,0l-.859.859a9.9,9.9,0,0,0-2.373-.984V74.632A.632.632,0,0,0,87.471,74H83.517a.632.632,0,0,0-.632.632v1.215a9.894,9.894,0,0,0-2.373.983l-.859-.859a.633.633,0,0,0-.894,0l-2.8,2.795a.632.632,0,0,0,0,.894l.86.86a9.9,9.9,0,0,0-.984,2.373H74.619a.632.632,0,0,0-.632.632l0,3.954a.632.632,0,0,0,.632.633h1.221a9.9,9.9,0,0,0,.984,2.373l-.865.865a.632.632,0,0,0,0,.894l2.795,2.8a.633.633,0,0,0,.447.186h0a.632.632,0,0,0,.447-.185l.865-.866a9.91,9.91,0,0,0,2.373.984Zm-2.125-3.539a.633.633,0,0,0-.79.084l-.77.77-1.9-1.9.769-.769a.632.632,0,0,0,.084-.79,8.655,8.655,0,0,1-1.2-2.891.633.633,0,0,0-.618-.5H75.249V84.158h1.085a.632.632,0,0,0,.618-.5,8.656,8.656,0,0,1,1.2-2.891.632.632,0,0,0-.084-.79l-.764-.764,1.9-1.9.764.764a.633.633,0,0,0,.79.084,8.652,8.652,0,0,1,2.891-1.2.633.633,0,0,0,.5-.618v-1.08h2.689v1.08a.632.632,0,0,0,.5.618,8.659,8.659,0,0,1,2.891,1.2.632.632,0,0,0,.79-.084l.764-.764,1.9,1.9-.764.764a.632.632,0,0,0-.084.79,8.661,8.661,0,0,1,1.2,2.891.632.632,0,0,0,.618.5h1.087v2.689H94.652a.633.633,0,0,0-.618.5,8.654,8.654,0,0,1-1.2,2.891.632.632,0,0,0,.084.79l.769.769-1.9,1.9-.77-.77a.632.632,0,0,0-.79-.084,8.661,8.661,0,0,1-2.891,1.2.632.632,0,0,0-.5.618v1.091H84.149V94.662a.633.633,0,0,0-.5-.618,8.656,8.656,0,0,1-2.891-1.2Zm0,0" transform="translate(-69.306 -69.321)"/><path class="a" d="M183.821,178.6a5.225,5.225,0,1,0-5.225,5.225A5.231,5.231,0,0,0,183.821,178.6Zm-9.185,0a3.96,3.96,0,1,1,3.96,3.96A3.965,3.965,0,0,1,174.636,178.6Zm0,0" transform="translate(-162.408 -162.408)"/><path class="a" d="M338.71,19.074a.633.633,0,1,0-.447-.185A.637.637,0,0,0,338.71,19.074Zm0,0" transform="translate(-316.7 -16.682)"/><path class="a" d="M154.991,474.359a.633.633,0,1,0,.447.185A.637.637,0,0,0,154.991,474.359Zm0,0" transform="translate(-144.598 -444.363)"/></svg>