<svg xmlns="http://www.w3.org/2000/svg" width="39.57" height="30.008" viewBox="0 0 39.57 30.008"><defs><style>.a{fill:#6368d9;}</style></defs><g transform="translate(8.615 18.979)"><path class="a" d="M79.846,200.224a3.129,3.129,0,1,0,3.129,3.129A3.116,3.116,0,0,0,79.846,200.224Zm0,5.631a2.5,2.5,0,1,1,2.5-2.5A2.508,2.508,0,0,1,79.846,205.855Z" transform="translate(-76.717 -200.224)"/></g><g transform="translate(5.57 15.876)"><path class="a" d="M62.013,178.406l-.029-.377a.891.891,0,0,0-.889-.792h-.444a5.231,5.231,0,0,0-.85-1.584l.251-.348A.93.93,0,0,0,59.9,174.1l-.251-.222a.925.925,0,0,0-1.207.068l-.319.319a5.286,5.286,0,0,0-1.709-.5l-.068-.444a.888.888,0,0,0-.947-.724l-.348.029a.891.891,0,0,0-.792.889v.444a5.152,5.152,0,0,0-1.584.821l-.348-.251a.93.93,0,0,0-1.207.155l-.222.251a.925.925,0,0,0,.068,1.207l.319.319a4.912,4.912,0,0,0-.541,1.709l-.415.068a.888.888,0,0,0-.724.947l.029.348a.891.891,0,0,0,.889.792h.415a4.434,4.434,0,0,0,.821,1.584l-.222.348a.93.93,0,0,0,.155,1.207l.251.222a.925.925,0,0,0,1.207-.068l.28-.28a5.264,5.264,0,0,0,1.739.541l.068.415a.935.935,0,0,0,.889.724c.029,0,.029,0,.1-.029l.348-.029a.891.891,0,0,0,.792-.889v-.415a5.23,5.23,0,0,0,1.584-.85l.348.222a.93.93,0,0,0,1.207-.155l.222-.251a.925.925,0,0,0-.068-1.207l-.28-.28a5.287,5.287,0,0,0,.5-1.71l.415-.068A.888.888,0,0,0,62.013,178.406Zm-.888.357-.666.126a.3.3,0,0,0-.251.28,4.01,4.01,0,0,1-.57,1.9.324.324,0,0,0,.068.377l.473.444a.247.247,0,0,1,.029.348l-.222.251a.278.278,0,0,1-.348.029l-.541-.377a.321.321,0,0,0-.377.029,4.456,4.456,0,0,1-1.777.947.312.312,0,0,0-.222.319v.637a.245.245,0,0,1-.222.251l-.348.029a.3.3,0,0,1-.28-.222l-.126-.638a.3.3,0,0,0-.28-.251,4.658,4.658,0,0,1-1.932-.6.312.312,0,0,0-.155-.029.331.331,0,0,0-.251.155l-.444.473a.247.247,0,0,1-.348.029l-.251-.222a.265.265,0,0,1-.068-.348l.377-.541a.321.321,0,0,0-.029-.377,4.6,4.6,0,0,1-.918-1.777.312.312,0,0,0-.319-.222h-.666a.245.245,0,0,1-.251-.222l-.029-.348a.3.3,0,0,1,.222-.28l.666-.126a.3.3,0,0,0,.251-.28,4.532,4.532,0,0,1,.6-1.9.324.324,0,0,0-.068-.377l-.473-.473a.247.247,0,0,1-.029-.348l.222-.251a.279.279,0,0,1,.348-.029l.57.377a.321.321,0,0,0,.377-.029,4.151,4.151,0,0,1,1.739-.918.312.312,0,0,0,.222-.319v-.7a.245.245,0,0,1,.222-.251l.348-.029a.3.3,0,0,1,.28.222l.126.666a.3.3,0,0,0,.28.251,4.01,4.01,0,0,1,1.9.57.324.324,0,0,0,.377-.068l.473-.473a.278.278,0,0,1,.348-.029l.251.222a.279.279,0,0,1,.029.348l-.377.57a.321.321,0,0,0,.029.377,4.213,4.213,0,0,1,.947,1.739.348.348,0,0,0,.319.222h.666a.245.245,0,0,1,.251.222l.029.348A.28.28,0,0,1,61.124,178.764Z" transform="translate(-49.599 -172.589)"/></g><g transform="translate(20.266 12.11)"><path class="a" d="M191.109,143.843a.36.36,0,0,0-.357-.271c-.155.029-.319.193-.28.348a4.691,4.691,0,1,1-5.1-4.24,4.789,4.789,0,0,1,3.989,1.613,4.641,4.641,0,0,1,.57.821.326.326,0,1,0,.57-.319,6.164,6.164,0,0,0-.666-.918,5.341,5.341,0,1,0-4.018,8.857,1.085,1.085,0,0,0,.473-.068,5.382,5.382,0,0,0,3.612-1.932A5.242,5.242,0,0,0,191.109,143.843Z" transform="translate(-180.468 -139.05)"/></g><g transform="translate(16.586 8.455)"><path class="a" d="M165.7,114.93l-.019-.5a1.2,1.2,0,0,0-1.169-1.043h-.763a7.323,7.323,0,0,0-1.333-2.473l.444-.638a1.215,1.215,0,0,0-.222-1.555l-.377-.319a1.206,1.206,0,0,0-1.584.1l-.541.541a7.048,7.048,0,0,0-2.656-.821l-.126-.763a1.2,1.2,0,0,0-1.265-.947l-.5.029a1.2,1.2,0,0,0-1.043,1.169v.763a6.675,6.675,0,0,0-2.473,1.294l-.637-.444a1.215,1.215,0,0,0-1.555.222l-.319.377a1.206,1.206,0,0,0,.1,1.584l.541.541a7.346,7.346,0,0,0-.821,2.695l-.724.126a1.2,1.2,0,0,0-.947,1.265l.029.5a1.219,1.219,0,0,0,1.169,1.043h.724a7.106,7.106,0,0,0,1.333,2.5l-.415.6a1.215,1.215,0,0,0,.222,1.555l.377.319a1.206,1.206,0,0,0,1.584-.1l.5-.5a7.547,7.547,0,0,0,2.724.821l.126.7a1.176,1.176,0,0,0,1.14.947c.029,0,.068,0,.068.068l.5-.068a1.2,1.2,0,0,0,1.043-1.169v-.7a7.454,7.454,0,0,0,2.5-1.333l.6.415a1.215,1.215,0,0,0,1.555-.222l.319-.377a1.206,1.206,0,0,0-.1-1.584l-.5-.5a7.548,7.548,0,0,0,.821-2.724l.724-.126A1.2,1.2,0,0,0,165.7,114.93Zm-1.033.57-.947.155a.3.3,0,0,0-.251.28,6.68,6.68,0,0,1-.889,2.917.324.324,0,0,0,.068.377l.7.666a.558.558,0,0,1,.029.724l-.319.377a.576.576,0,0,1-.724.1l-.792-.541a.321.321,0,0,0-.377.029,6.652,6.652,0,0,1-2.695,1.42.312.312,0,0,0-.222.319v.947a.585.585,0,0,1-.473.541l-.5.068a.583.583,0,0,1-.57-.444l-.155-.947a.3.3,0,0,0-.28-.251,6.8,6.8,0,0,1-2.917-.889.312.312,0,0,0-.155-.029c-.1,0-.155.029-.155.068l-.666.7a.558.558,0,0,1-.724.029l-.377-.319a.531.531,0,0,1-.1-.7l.541-.792a.318.318,0,0,0-.029-.377,6.844,6.844,0,0,1-1.42-2.695.312.312,0,0,0-.319-.222h-.985a.56.56,0,0,1-.541-.473l-.029-.5a.554.554,0,0,1,.444-.57l.985-.193a.3.3,0,0,0,.251-.28,6.52,6.52,0,0,1,.889-2.878.324.324,0,0,0-.068-.377l-.724-.7a.558.558,0,0,1-.029-.724l.319-.377a.531.531,0,0,1,.7-.1l.821.57a.318.318,0,0,0,.377-.029,6.7,6.7,0,0,1,2.656-1.391.312.312,0,0,0,.222-.319v-1.014a.585.585,0,0,1,.473-.541l.5-.029a.583.583,0,0,1,.57.444l.193,1.014a.3.3,0,0,0,.28.251,6.924,6.924,0,0,1,2.849.889.324.324,0,0,0,.377-.068l.7-.724a.558.558,0,0,1,.724-.029l.377.319a.531.531,0,0,1,.1.7l-.57.821a.321.321,0,0,0,.029.377,6.76,6.76,0,0,1,1.42,2.656.312.312,0,0,0,.319.222h.985a.585.585,0,0,1,.541.473l.029.5A.547.547,0,0,1,164.665,115.5Z" transform="translate(-147.698 -106.501)"/></g><path class="a" d="M36.5,42.573H3.1A3.129,3.129,0,0,0,0,45.7v26.56a.3.3,0,0,0,.319.319H39.251a.315.315,0,0,0,.319-.319V45.7A3.092,3.092,0,0,0,36.5,42.573Zm2.444,29.381H.638V47.228h36.75a.319.319,0,1,0,0-.637H.638V45.7A2.522,2.522,0,0,1,3.11,43.2h33.4a2.489,2.489,0,0,1,2.434,2.5V71.954Z" transform="translate(0 -42.573)"/><g transform="translate(2.473 3.5)"><path class="a" d="M22.559,62.471a.309.309,0,0,0-.444,0,.314.314,0,1,0,.444.444.3.3,0,0,0,0-.444Z" transform="translate(-22.018 -62.376)"/></g><g transform="translate(4.018 3.5)"><path class="a" d="M36.32,62.471a.309.309,0,0,0-.444,0,.314.314,0,1,0,.444.444.3.3,0,0,0,0-.444Z" transform="translate(-35.779 -62.376)"/></g><g transform="translate(5.573 3.5)"><path class="a" d="M50.168,62.471a.309.309,0,0,0-.444,0,.319.319,0,0,0,.222.541.314.314,0,0,0,.222-.541Z" transform="translate(-49.627 -62.376)"/></g></svg>